Coordinates
version=1
nRows=17
nColumns=38
inDegrees=no

Units are S.I. units (second, meters, Newtons, ...)
If the header above contains a line with 'inDegrees', this indicates whether rotational values are in degrees (yes) or radians (no).

endheader
time	pelvis_tilt	pelvis_list	pelvis_rotation	pelvis_tx	pelvis_ty	pelvis_tz	hip_flexion_r	hip_adduction_r	hip_rotation_r	knee_angle_r	ankle_angle_r	subtalar_angle_r	mtp_angle_r	hip_flexion_l	hip_adduction_l	hip_rotation_l	knee_angle_l	ankle_angle_l	subtalar_angle_l	mtp_angle_l	lumbar_extension	lumbar_bending	lumbar_rotation	arm_flex_r	arm_add_r	arm_rot_r	elbow_flex_r	pro_sup_r	wrist_flex_r	wrist_dev_r	arm_flex_l	arm_add_l	arm_rot_l	elbow_flex_l	pro_sup_l	wrist_flex_l	wrist_dev_l
0.57	-0.0124875	1.31965	-1.57004	0.649577	1.36184	1.02029	-0.200866	0.0686039	-0.242212	0.622938	-0.0387925	0	0	0.143859	-0.0326629	-0.271967	0.379267	-0.197073	0	0	-0.399946	0.207787	0.29388	-0.124017	-0.447884	-0.0984545	1.68852	0.650895	0	0	0.36917	-0.457483	0.421132	0.975766	0.580516	0	0
0.58	-0.0156322	1.32437	-1.56591	0.650717	1.35183	1.01839	-0.20532	0.0690486	-0.23751	0.625694	-0.0335806	0	0	0.139457	-0.0258881	-0.262838	0.32401	-0.207835	0	0	-0.392334	0.210014	0.292002	-0.123068	-0.448766	-0.0972794	1.68678	0.651742	0	0	0.368146	-0.455691	0.419276	0.973696	0.580723	0	0
0.59	-0.0187558	1.32898	-1.56256	0.651813	1.34175	1.01647	-0.209377	0.0689965	-0.232977	0.629546	-0.0307781	0	0	0.137383	-0.020988	-0.257149	0.282627	-0.211937	0	0	-0.385183	0.211668	0.291563	-0.122921	-0.449782	-0.0969374	1.68545	0.651625	0	0	0.368457	-0.453835	0.419354	0.971026	0.579737	0	0
0.6	-0.0190523	1.33201	-1.56275	0.652851	1.33166	1.01467	-0.214981	0.0677845	-0.228542	0.63375	-0.0270133	0	0	0.133509	-0.0156309	-0.250439	0.246048	-0.218616	0	0	-0.37977	0.212272	0.290591	-0.12098	-0.450783	-0.0949565	1.68307	0.652395	0	0	0.368703	-0.452351	0.418782	0.968104	0.581485	0	0
0.61	-0.0189725	1.33352	-1.56428	0.653838	1.32151	1.01293	-0.222047	0.0662558	-0.223102	0.638259	-0.022454	0	0	0.129745	-0.0115748	-0.247631	0.217927	-0.226576	0	0	-0.376128	0.212443	0.289705	-0.117819	-0.451415	-0.092281	1.6803	0.655499	0	0	0.368402	-0.451066	0.416853	0.96535	0.584571	0	0
0.62	-0.0205326	1.33504	-1.5649	0.654728	1.31126	1.01126	-0.229563	0.0648297	-0.216742	0.641609	-0.0222073	0	0	0.129535	-0.00980936	-0.250478	0.205404	-0.225493	0	0	-0.373064	0.212034	0.291122	-0.116684	-0.45193	-0.0918084	1.67868	0.653101	0	0	0.36995	-0.449852	0.418361	0.962449	0.583762	0	0
0.63	-0.0201048	1.33508	-1.56779	0.655539	1.30101	1.00974	-0.237848	0.0626714	-0.210797	0.64654	-0.0209754	0	0	0.127731	-0.00831397	-0.251904	0.199856	-0.227039	0	0	-0.371965	0.21074	0.291879	-0.114309	-0.451952	-0.0904242	1.67675	0.653662	0	0	0.370937	-0.449084	0.417953	0.960235	0.583859	0	0
0.64	-0.0197812	1.33471	-1.57129	0.656268	1.2907	1.00828	-0.245705	0.0602149	-0.204204	0.653263	-0.0202552	0	0	0.126001	-0.00773017	-0.254368	0.20169	-0.227705	0	0	-0.371537	0.208988	0.293152	-0.111805	-0.451697	-0.0889872	1.67485	0.654511	0	0	0.372018	-0.448483	0.417521	0.958001	0.583782	0	0
0.65	-0.0207179	1.33404	-1.57433	0.65692	1.28029	1.00681	-0.252836	0.0578492	-0.195908	0.662338	-0.0200858	0	0	0.125866	-0.0088198	-0.261365	0.213776	-0.226915	0	0	-0.371533	0.207194	0.294778	-0.108961	-0.451107	-0.0872465	1.67295	0.655699	0	0	0.372765	-0.448277	0.416835	0.956027	0.583628	0	0
0.66	-0.0244715	1.33472	-1.57487	0.657514	1.2697	1.00518	-0.257511	0.0560939	-0.186568	0.673749	-0.0216087	0	0	0.130209	-0.012796	-0.27306	0.24005	-0.220238	0	0	-0.370086	0.20575	0.296845	-0.107154	-0.449344	-0.0867088	1.67143	0.663138	0	0	0.372942	-0.448672	0.416289	0.954925	0.584661	0	0
0.67	-0.0293394	1.33544	-1.57469	0.658009	1.25895	1.00352	-0.261386	0.0545249	-0.17624	0.686891	-0.0258644	0	0	0.134478	-0.0185836	-0.284808	0.274338	-0.211336	0	0	-0.368822	0.204014	0.300008	-0.106652	-0.448838	-0.0861047	1.6713	0.660655	0	0	0.37372	-0.449895	0.417738	0.954747	0.584938	0	0
0.68	-0.0336074	1.3347	-1.57522	0.65849	1.24804	1.00199	-0.266638	0.0525327	-0.166153	0.700484	-0.028925	0	0	0.134671	-0.0239016	-0.294075	0.306714	-0.2089	0	0	-0.369038	0.201939	0.302396	-0.1055	-0.448093	-0.0847264	1.67127	0.660223	0	0	0.373252	-0.451561	0.417063	0.956085	0.584959	0	0
0.69	-0.0358937	1.3349	-1.5787	0.658967	1.23688	1.00041	-0.27018	0.0494972	-0.154527	0.71595	-0.0398572	0	0	0.134642	-0.0286388	-0.306193	0.33801	-0.207959	0	0	-0.368208	0.198719	0.306328	-0.106211	-0.447007	-0.0848331	1.67179	0.664308	0	0	0.373121	-0.453412	0.418232	0.95773	0.583992	0	0
0.7	-0.0248585	1.33318	-1.59511	0.65959	1.22571	0.999261	-0.275368	0.0424137	-0.144713	0.731872	-0.0484691	0	0	0.129179	-0.0269331	-0.314514	0.351943	-0.219032	0	0	-0.369363	0.191911	0.308302	-0.105455	-0.445964	-0.0833097	1.67107	0.666894	0	0	0.372564	-0.455772	0.41803	0.959779	0.584154	0	0
0.71	0.00208681	1.33053	-1.62644	0.660331	1.21468	0.998607	-0.280229	0.0311306	-0.135562	0.749492	-0.0522338	0	0	0.124602	-0.0203519	-0.324093	0.359542	-0.234022	0	0	-0.371789	0.180609	0.308754	-0.104278	-0.445309	-0.0809778	1.66964	0.661456	0	0	0.373127	-0.458111	0.418162	0.961295	0.584297	0	0
0.72	0.0350225	1.32725	-1.66214	0.661155	1.20379	0.998377	-0.283992	0.0189292	-0.125606	0.769073	-0.0664145	0	0	0.123163	-0.0142827	-0.33613	0.375484	-0.253723	0	0	-0.374973	0.167701	0.306971	-0.102395	-0.44279	-0.0792539	1.66727	0.664071	0	0	0.373692	-0.460773	0.417571	0.963074	0.585092	0	0
0.73	0.0629065	1.32548	-1.69083	0.662155	1.1929	0.998291	-0.284253	0.0092701	-0.113371	0.791408	-0.082204	0	0	0.124412	-0.0107488	-0.343918	0.399059	-0.268432	0	0	-0.376437	0.157126	0.304171	-0.101547	-0.440165	-0.0785554	1.66548	0.666946	0	0	0.374377	-0.462367	0.416845	0.963758	0.586949	0	0
